<svg width="308" height="488" viewBox="0 0 308 488" fill="none" xmlns="http://www.w3.org/2000/svg">
<g clip-path="url(#clip0_52_46433)">
<path d="M300.096 157.621H23.7426V320.284H300.096V157.621Z" fill="#5E5E5E"/>
<path d="M48.0067 226.503C48.0067 227.427 48.7489 228.171 49.6717 228.171H273.826C274.749 228.171 275.491 227.427 275.491 226.503V172.145C275.491 168.911 278.109 166.299 281.329 166.299H302.965C305.743 166.299 307.99 164.049 307.99 161.267V44.3244C307.99 19.847 288.17 0 263.725 0H60.3243C35.8797 0 16.0692 19.847 16.0692 44.3244V161.257C16.0692 164.039 18.3161 166.289 21.0945 166.289H42.1688C45.3987 166.289 48.0067 168.911 48.0067 172.135V226.493V226.503Z" fill="url(#paint0_linear_52_46433)"/>
<path d="M48.6386 225.891V172.145C48.6386 168.569 45.7397 165.667 42.1688 165.667H21.3954C18.7975 165.667 16.6911 163.557 16.6911 160.956V44.3244C16.6911 20.1886 36.2307 0.632812 60.3242 0.632812H247.375C269.593 0.632812 289.925 18.6719 289.925 40.9195L303.978 128.443C305.854 128.443 307.368 140.094 307.368 141.973V160.956C307.368 163.557 305.262 165.667 302.664 165.667H281.329C277.758 165.667 274.859 168.569 274.859 172.145V225.891C274.859 226.805 274.117 227.538 273.214 227.538H50.2836C49.3708 227.538 48.6386 226.795 48.6386 225.891V225.891Z" fill="url(#paint1_linear_52_46433)"/>
<path d="M49.2605 225.278V172.135C49.2605 168.208 46.0808 165.024 42.1588 165.024H21.6964C19.279 165.024 17.323 163.065 17.323 160.645V44.3245C17.323 20.5402 36.5718 1.26562 60.3243 1.26562H231.005C251.006 1.26562 271.84 17.4968 271.84 37.5246L299.946 116.29C303.697 116.29 306.736 128.453 306.736 132.21V160.655C306.736 163.075 304.78 165.034 302.363 165.034H281.339C277.417 165.034 274.237 168.218 274.237 172.145V225.288C274.237 226.192 273.505 226.915 272.612 226.915H50.8955C49.9927 226.915 49.2705 226.182 49.2705 225.288L49.2605 225.278Z" fill="url(#paint2_linear_52_46433)"/>
<path d="M49.8923 224.675V172.145C49.8923 167.866 46.4318 164.401 42.1587 164.401H22.0072C19.7704 164.401 17.9548 162.583 17.9548 160.343V44.3243C17.9548 20.8915 36.9227 1.88818 60.3241 1.88818H214.645C232.419 1.88818 253.765 16.3215 253.765 34.1195L295.923 104.137C301.55 104.137 306.104 116.812 306.104 122.437V160.343C306.104 162.583 304.289 164.401 302.052 164.401H281.329C277.056 164.401 273.595 167.866 273.595 172.145V224.675C273.595 225.569 272.873 226.282 271.99 226.282H51.4972C50.6045 226.282 49.8923 225.559 49.8923 224.675Z" fill="url(#paint3_linear_52_46433)"/>
<path d="M50.5243 224.063V172.145C50.5243 167.525 46.7829 163.768 42.1587 163.768H22.3082C20.2519 163.768 18.5868 162.101 18.5868 160.042V44.3243C18.5868 21.2331 37.2738 2.521 60.3242 2.521H198.275C213.833 2.521 235.689 15.1464 235.689 30.7247L291.901 91.9934C299.404 91.9934 305.472 105.171 305.472 112.684V160.052C305.472 162.111 303.807 163.778 301.751 163.778H281.329C276.715 163.778 272.973 167.525 272.973 172.155V224.073C272.973 224.946 272.261 225.66 271.388 225.66H52.1091C51.2365 225.66 50.5243 224.946 50.5243 224.073V224.063Z" fill="url(#paint4_linear_52_46433)"/>
<path d="M51.1561 223.45V172.145C51.1561 167.173 47.1339 163.145 42.1687 163.145H22.609C20.7333 163.145 19.2086 161.619 19.2086 159.74V44.3244C19.2086 21.5846 37.6148 3.15381 60.3241 3.15381H181.915C195.246 3.15381 217.614 13.9813 217.614 27.3298L287.879 79.8401C297.247 79.8401 304.85 93.5301 304.85 102.911V159.73C304.85 161.609 303.326 163.135 301.45 163.135H281.329C276.363 163.135 272.341 167.163 272.341 172.135V223.44C272.341 224.304 271.639 225.007 270.776 225.007H52.7209C51.8583 225.007 51.1561 224.304 51.1561 223.44V223.45Z" fill="url(#paint5_linear_52_46433)"/>
<path d="M51.7782 222.837V172.135C51.7782 166.812 47.475 162.503 42.1588 162.503H22.9201C21.2249 162.503 19.8507 161.127 19.8507 159.429V44.3244C19.8407 21.9362 37.966 3.78662 60.3242 3.78662H165.545C176.659 3.78662 199.529 12.8062 199.529 23.935L283.856 67.6969C295.101 67.6969 304.219 81.8891 304.219 93.1586V159.439C304.219 161.137 302.844 162.513 301.149 162.513H281.339C276.023 162.513 271.719 166.822 271.719 172.145V222.847C271.719 223.701 271.027 224.394 270.175 224.394H53.3329C52.4803 224.394 51.7882 223.701 51.7882 222.847L51.7782 222.837Z" fill="url(#paint6_linear_52_46433)"/>
<path d="M52.4102 222.234V172.145C52.4102 166.48 47.8262 161.88 42.1589 161.88H23.2211C21.7065 161.88 20.4727 160.644 20.4727 159.128V44.3242C20.4727 22.2775 38.3171 4.40918 60.3243 4.40918H149.185C158.073 4.40918 181.454 11.6208 181.454 20.5299L279.834 55.5334C292.954 55.5334 303.597 70.2379 303.597 83.3755V159.118C303.597 160.634 302.363 161.87 300.848 161.87H281.339C275.682 161.87 271.088 166.46 271.088 172.135V222.224C271.088 223.068 270.405 223.751 269.563 223.751H53.9348C53.0922 223.751 52.4102 223.068 52.4102 222.224V222.234Z" fill="url(#paint7_linear_52_46433)"/>
<path d="M53.042 221.622V172.145C53.042 166.128 48.1671 161.247 42.1588 161.247H23.5219C22.1878 161.247 21.1045 160.162 21.1045 158.826V44.3243C21.1045 22.6291 38.6581 5.04199 60.3242 5.04199H132.815C139.486 5.04199 163.379 10.4557 163.379 17.125L275.812 43.3801C290.808 43.3801 302.965 58.5969 302.965 73.6127V158.816C302.965 160.152 301.881 161.237 300.547 161.237H281.339C275.33 161.237 270.456 166.118 270.456 172.135V221.612C270.456 222.445 269.783 223.118 268.951 223.118H54.5466C53.714 223.118 53.042 222.445 53.042 221.612V221.622Z" fill="url(#paint8_linear_52_46433)"/>
<path d="M53.674 221.009V172.135C53.674 165.767 48.5182 160.614 42.1689 160.614H23.8229C22.6694 160.614 21.7265 159.67 21.7265 158.515V44.3243C21.7265 22.9807 39.0092 5.6748 60.3243 5.6748H116.456C120.899 5.6748 145.304 9.28062 145.304 13.7301L271.79 31.2369C288.661 31.2369 302.333 46.9558 302.333 63.8499V158.515C302.333 159.67 301.39 160.614 300.236 160.614H281.339C274.979 160.614 269.834 165.777 269.834 172.135V221.009C269.834 221.833 269.172 222.496 268.349 222.496H55.1585C54.336 222.496 53.674 221.833 53.674 221.009V221.009Z" fill="url(#paint9_linear_52_46433)"/>
<path d="M54.3058 220.396V172.135C54.3058 165.425 48.8692 159.982 42.1687 159.982H24.1337C23.1607 159.982 22.3683 159.188 22.3683 158.214V44.3243C22.3583 23.3222 39.3602 6.30762 60.3241 6.30762H100.085C102.312 6.30762 127.218 8.11555 127.218 10.3353L267.757 19.0836C286.504 19.0836 301.701 35.3148 301.701 54.0871V158.214C301.701 159.188 300.908 159.982 299.935 159.982H281.339C274.638 159.982 269.202 165.425 269.202 172.135V220.396C269.202 221.21 268.55 221.863 267.737 221.863H55.7702C54.9578 221.863 54.3058 221.21 54.3058 220.396Z" fill="url(#paint10_linear_52_46433)"/>
<path d="M54.9277 219.794V172.145C54.9277 165.084 49.2103 159.359 42.1588 159.359H24.4347C23.6322 159.359 22.9903 158.716 22.9903 157.912V44.3242C22.9903 23.6736 39.7013 6.93018 60.3242 6.93018H263.735C284.358 6.93018 301.069 23.6636 301.069 44.3141V157.902C301.069 158.706 300.427 159.349 299.625 159.349H281.329C274.277 159.349 268.56 165.074 268.56 172.135V219.784C268.56 220.587 267.918 221.23 267.115 221.23H56.3721C55.5697 221.23 54.9277 220.587 54.9277 219.784V219.794Z" fill="url(#paint11_linear_52_46433)"/>
<path d="M275.491 233.986C275.491 233.062 274.739 232.319 273.826 232.319H49.6717C48.7489 232.319 48.0067 233.072 48.0067 233.986V288.345C48.0067 291.579 45.3887 294.19 42.1689 294.19H21.0945C18.3161 294.19 16.0692 296.44 16.0692 299.222V416.155C16.0692 440.632 35.8897 460.479 60.3343 460.479H263.745C288.19 460.479 308.01 440.632 308.01 416.155V299.222C308.01 296.44 305.763 294.19 302.985 294.19H281.349C280.306 294.19 279.323 293.919 278.48 293.437C277.808 293.055 277.216 292.543 276.745 291.94C275.972 290.946 275.511 289.7 275.511 288.345V233.986H275.491Z" fill="url(#paint12_linear_52_46433)"/>
<path d="M48.6386 234.458C48.6386 233.614 49.5413 232.941 50.3739 232.941H273.134C273.976 232.941 274.869 233.624 274.869 234.458V288.334C274.869 289.68 275.3 290.926 276.033 291.93C276.484 292.543 277.046 293.075 277.678 293.477C278.48 293.989 279.423 294.311 280.416 294.371C280.627 294.642 292.352 294.823 292.723 294.823H301.771C304.299 294.823 307.007 296.872 307.007 299.403L307.368 303.34V415.1C307.368 419.108 306.736 424.029 305.693 427.695C300.517 445.925 284.057 457.818 264.367 459.796C264.156 459.816 257.877 459.857 257.667 459.857H60.3242C38.4073 459.857 20.4224 443.645 17.2026 422.593C16.8816 420.494 16.6911 417.752 16.6911 415.562V299.403C16.6911 296.872 19.4194 294.823 21.9471 294.823H34.044C34.3148 294.823 42.6804 294.732 42.881 294.572C46.0206 294.411 48.2373 291.769 48.6085 288.595C48.6085 288.515 48.6386 285.833 48.6386 285.753V234.468V234.458Z" fill="url(#paint13_linear_52_46433)"/>
<path d="M49.2605 234.94C49.2605 234.187 50.3137 233.574 51.066 233.574H272.432C273.184 233.574 274.237 234.187 274.237 234.94V288.344C274.237 289.68 274.648 290.916 275.34 291.93C275.762 292.553 276.293 293.095 276.895 293.517C277.658 294.059 278.55 294.421 279.503 294.552C279.924 295.094 290.848 295.446 291.59 295.446H300.578C302.844 295.446 306.014 297.294 306.014 299.564L306.746 303.109V414.026C306.746 417.631 306.134 423.226 305.242 426.53C300.327 444.71 284.448 456.994 264.999 459.093C264.588 459.133 258.7 459.214 258.278 459.214H60.3242C38.5378 459.214 20.8438 442.932 17.7844 421.94C17.5136 420.052 17.323 416.918 17.323 414.95V299.564C17.323 297.294 20.5328 295.446 22.8098 295.446H34.8666C35.4082 295.446 43.212 295.255 43.6132 294.943C46.6626 294.612 48.8191 291.99 49.2204 288.837C49.2404 288.676 49.2705 286.175 49.2705 286.004V234.94H49.2605Z" fill="url(#paint14_linear_52_46433)"/>
<path d="M49.8924 235.422C49.8924 234.749 51.096 234.207 51.758 234.207H271.729C272.401 234.207 273.595 234.749 273.595 235.422V288.344C273.595 289.66 273.976 290.896 274.628 291.92C275.029 292.553 275.521 293.105 276.103 293.557C276.825 294.13 277.668 294.542 278.58 294.743C279.222 295.556 289.323 296.088 290.446 296.088H299.374C301.39 296.088 305.021 297.726 305.021 299.754L306.114 302.908V412.981C306.114 416.185 305.533 422.453 304.78 425.405C300.126 443.535 284.819 456.211 265.631 458.44C265.009 458.511 259.532 458.611 258.89 458.611H60.3242C38.6681 458.611 21.2549 442.259 18.3561 421.318C18.1254 419.64 17.9448 416.115 17.9448 414.367V299.765C17.9448 297.746 21.6361 296.098 23.6623 296.098H35.6689C36.4814 296.098 43.7235 295.817 44.3254 295.345C47.2944 294.853 49.3908 292.231 49.8121 289.108C49.8422 288.867 49.8924 286.537 49.8924 286.285V235.442V235.422Z" fill="url(#paint15_linear_52_46433)"/>
<path d="M50.5243 235.894C50.5243 235.312 51.8784 234.83 52.4602 234.83H271.037C271.619 234.83 272.973 235.302 272.973 235.894V288.344C272.973 289.65 273.324 290.875 273.936 291.92C274.307 292.553 274.779 293.125 275.32 293.597C276.002 294.2 276.805 294.662 277.668 294.923C278.52 296.018 287.819 296.711 289.303 296.711H298.17C299.936 296.711 304.018 298.147 304.018 299.915L305.472 302.667V411.896C305.472 414.698 304.931 421.639 304.299 424.23C299.905 442.319 285.18 455.377 266.243 457.727C265.42 457.827 260.335 457.958 259.472 457.958H60.3242C38.7985 457.958 21.6762 441.536 18.9379 420.654C18.7473 419.188 18.5868 415.271 18.5868 413.744V299.915C18.5868 298.147 22.7595 296.711 24.535 296.711H36.4915C37.5848 296.711 44.2652 296.339 45.0576 295.707C47.9364 295.054 49.9826 292.432 50.434 289.339C50.4842 289.017 50.5443 286.868 50.5443 286.526V235.904L50.5243 235.894Z" fill="url(#paint16_linear_52_46433)"/>
<path d="M51.1562 236.376C51.1562 235.874 52.6608 235.462 53.1624 235.462H270.345C270.847 235.462 272.351 235.874 272.351 236.376V288.344C272.351 289.64 272.682 290.865 273.254 291.91C273.605 292.553 274.036 293.135 274.548 293.638C275.19 294.27 275.942 294.783 276.765 295.104C277.828 296.47 286.314 297.344 288.18 297.344H296.986C298.501 297.344 303.045 298.569 303.045 300.086L304.861 302.446V410.831C304.861 413.232 304.369 420.845 303.857 423.075C299.725 441.134 285.592 454.553 266.885 457.034C265.862 457.175 261.167 457.325 260.094 457.325H60.3242C38.9289 457.325 22.0976 440.833 19.5197 420.012C19.3592 418.746 19.2188 414.447 19.2188 413.132V300.076C19.2188 298.559 23.873 297.334 25.3876 297.334H37.2939C38.6581 297.334 44.7768 296.862 45.7598 296.078C48.5483 295.265 50.5343 292.643 51.0158 289.58C51.076 289.178 51.1462 287.199 51.1462 286.777V236.366L51.1562 236.376Z" fill="url(#paint17_linear_52_46433)"/>
<path d="M51.7782 236.859C51.7782 236.437 53.4332 236.095 53.8445 236.095H269.633C270.054 236.095 271.709 236.437 271.709 236.859V288.344C271.709 289.63 272.01 290.845 272.542 291.91C272.863 292.563 273.274 293.155 273.746 293.678C274.347 294.351 275.06 294.893 275.832 295.285C277.106 296.922 284.789 297.977 287.026 297.977H295.763C297.027 297.977 302.032 299.001 302.032 300.267L304.219 302.235V409.777C304.219 411.776 303.787 420.072 303.386 421.93C299.504 439.969 285.963 453.75 267.507 456.351C266.273 456.522 261.99 456.703 260.696 456.703H60.3243C39.0594 456.703 22.5189 440.15 20.0915 419.379C19.9711 418.324 19.8407 413.634 19.8407 412.539V300.267C19.8407 299.001 24.9764 297.977 26.2403 297.977H38.1065C39.7415 297.977 45.158 297.213 46.482 296.47C48.9897 295.064 51.1162 292.884 51.6177 289.841C51.698 289.359 51.7782 287.561 51.7782 287.049V236.859V236.859Z" fill="url(#paint18_linear_52_46433)"/>
<path d="M52.4102 237.331C52.4102 236.999 54.2157 236.718 54.5467 236.718H268.941C269.272 236.718 271.078 236.989 271.078 237.331V288.345C271.078 289.62 271.358 290.826 271.84 291.9C272.141 292.563 272.512 293.166 272.953 293.718C273.515 294.421 274.177 295.014 274.919 295.476C276.404 297.384 283.285 298.61 285.883 298.61H294.559C295.572 298.61 301.029 299.433 301.029 300.438L303.577 302.015V408.713C303.577 410.32 303.206 419.289 302.905 420.785C299.274 438.815 286.344 452.946 268.118 455.678C266.684 455.889 262.792 456.09 261.288 456.09H60.3243C39.1898 456.09 22.9402 439.487 20.6733 418.757C20.583 417.913 20.4727 412.831 20.4727 411.957V300.458C20.4727 299.443 26.0898 298.63 27.1029 298.63H38.919C40.8248 298.63 45.6896 297.786 47.2043 296.872C49.6517 295.396 51.698 293.126 52.2196 290.112C52.3199 289.55 52.4102 287.933 52.4102 287.33V237.361V237.331Z" fill="url(#paint19_linear_52_46433)"/>
<path d="M53.042 237.813C53.042 237.562 54.998 237.361 55.2487 237.361H268.249C268.5 237.361 270.456 237.562 270.456 237.813V288.344C270.456 289.61 270.706 290.805 271.148 291.9C271.418 292.573 271.77 293.196 272.171 293.758C272.692 294.491 273.384 295.044 274.006 295.656C275.972 297.595 281.77 299.242 284.749 299.242H293.365C294.118 299.242 300.046 299.855 300.046 300.618L302.955 301.803V407.658C302.955 408.863 302.664 418.515 302.453 419.64C299.073 437.669 286.745 452.133 268.76 454.995C267.125 455.256 263.625 455.457 261.909 455.457H60.3242C39.3201 455.457 23.3614 438.794 21.255 418.103C21.1948 417.471 21.1045 411.997 21.1045 411.344V300.618C21.1045 299.865 27.2031 299.242 27.9655 299.242H39.7314C41.908 299.242 46.2312 298.328 47.9264 297.233C50.3137 295.687 52.2696 293.336 52.8313 290.333C52.9517 289.69 53.042 288.244 53.042 287.561V237.813Z" fill="url(#paint20_linear_52_46433)"/>
<path d="M53.6739 238.285C53.6739 238.114 55.7804 237.984 55.9409 237.984H267.557C267.727 237.984 269.834 238.125 269.834 238.285V288.335C269.834 289.58 270.054 290.785 270.466 291.88C270.716 292.553 271.027 293.196 271.398 293.789C271.88 294.552 272.502 295.185 273.104 295.828C275.22 298.108 280.276 299.855 283.626 299.855H292.182C292.683 299.855 299.063 300.267 299.063 300.769L302.343 301.553V406.553C302.343 407.357 302.142 417.702 302.012 418.445C298.882 436.484 287.167 451.279 269.402 454.262C267.567 454.574 264.467 454.785 262.531 454.785H60.3242C39.4505 454.785 23.7827 438.071 21.8368 417.421C21.7967 416.999 21.7365 411.133 21.7365 410.701V300.759C21.7365 300.257 28.3166 299.845 28.8281 299.845H40.5539C43.0014 299.845 46.7929 298.881 48.6586 297.585C51.0058 295.958 52.8615 293.538 53.4432 290.554C53.5837 289.831 53.684 288.566 53.684 287.792V238.255L53.6739 238.285Z" fill="url(#paint21_linear_52_46433)"/>
<path d="M54.3059 238.767C54.3059 238.687 56.5628 238.617 56.6431 238.617H266.865C266.945 238.617 269.202 238.687 269.202 238.767V288.345C269.202 289.58 269.402 290.775 269.763 291.88C269.984 292.563 270.275 293.216 270.616 293.829C271.057 294.622 271.609 295.335 272.191 296.008C274.428 298.64 278.761 300.488 282.482 300.488H290.978C291.229 300.488 298.07 300.689 298.07 300.95L301.711 301.342V405.499C301.711 405.9 301.601 416.929 301.54 417.31C298.662 435.37 287.558 450.476 270.024 453.589C267.988 453.951 265.28 454.172 263.133 454.172H60.3243C39.571 454.172 24.2041 437.408 22.4086 416.798C22.3885 416.587 22.3584 410.33 22.3584 410.109V300.94C22.3584 300.689 29.42 300.478 29.6808 300.478H41.3564C44.0747 300.478 47.3447 299.474 49.3709 297.967C51.6679 296.259 53.4232 293.759 54.0351 290.806C54.2056 290.002 54.3059 288.907 54.3059 288.053V238.737V238.767Z" fill="url(#paint22_linear_52_46433)"/>
<path d="M60.3242 453.549C39.7013 453.549 22.9903 436.815 22.9903 416.165V301.13H42.1588C49.2103 301.13 54.9277 295.405 54.9277 288.344V239.249H268.57V288.344C268.57 295.405 274.287 301.13 281.339 301.13H301.079V416.165C301.079 434.445 287.969 449.662 270.656 452.906C268.419 453.328 266.102 453.549 263.745 453.549H60.3242Z" fill="url(#paint23_linear_52_46433)"/>
<path d="M42.8609 168.881H16.1093C15.8766 168.881 15.688 169.07 15.688 169.303V291.177C15.688 291.41 15.8766 291.599 16.1093 291.599H42.8609C43.0936 291.599 43.2822 291.41 43.2822 291.177V169.303C43.2822 169.07 43.0936 168.881 42.8609 168.881Z" fill="url(#paint24_linear_52_46433)"/>
<path d="M42.0084 168.881H39.8318V291.599H42.0084C42.7106 291.599 43.2823 291.006 43.2823 290.273V170.217C43.2823 169.484 42.7106 168.891 42.0084 168.891V168.881Z" fill="url(#paint25_linear_52_46433)"/>
<path d="M16.9619 168.881H19.1385V291.599H16.9619C16.2598 291.599 15.688 291.006 15.688 290.273V170.217C15.688 169.484 16.2598 168.891 16.9619 168.891V168.881Z" fill="url(#paint26_linear_52_46433)"/>
<path d="M307.579 168.881H280.827C280.594 168.881 280.406 169.07 280.406 169.303V291.177C280.406 291.41 280.594 291.599 280.827 291.599H307.579C307.811 291.599 308 291.41 308 291.177V169.303C308 169.07 307.811 168.881 307.579 168.881Z" fill="url(#paint27_linear_52_46433)"/>
<path d="M306.726 168.881H304.55V291.599H306.726C307.428 291.599 308 291.006 308 290.273V170.217C308 169.484 307.428 168.891 306.726 168.891V168.881Z" fill="url(#paint28_linear_52_46433)"/>
<path d="M281.68 168.881H283.856V291.599H281.68C280.978 291.599 280.406 291.006 280.406 290.273V170.217C280.406 169.484 280.978 168.891 281.68 168.891V168.881Z" fill="url(#paint29_linear_52_46433)"/>
</g>
<defs>
<linearGradient id="paint0_linear_52_46433" x1="162.035" y1="227.618" x2="162.035" y2="-0.552419" gradientUnits="userSpaceOnUse">
<stop stop-color="#D7DBE0"/>
<stop offset="0.03" stop-color="#DBDBDB"/>
<stop offset="0.2" stop-color="#DBDBDB"/>
<stop offset="0.22" stop-color="#DBDBDB"/>
<stop offset="0.26" stop-color="#D9DBDC"/>
<stop offset="0.27" stop-color="#D7DBE0"/>
<stop offset="0.31" stop-color="#EDEDED"/>
<stop offset="0.53" stop-color="#EDEDED"/>
<stop offset="0.57" stop-color="#EDEDED"/>
<stop offset="0.82" stop-color="#EFEFEF"/>
<stop offset="0.94" stop-color="#F6F6F6"/>
<stop offset="1" stop-color="white"/>
</linearGradient>
<linearGradient id="paint1_linear_52_46433" x1="162.035" y1="227.036" x2="162.035" y2="0.130604" gradientUnits="userSpaceOnUse">
<stop stop-color="#DADEE3"/>
<stop offset="0.03" stop-color="#DEDEDE"/>
<stop offset="0.2" stop-color="#DEDEDE"/>
<stop offset="0.22" stop-color="#DEDEDE"/>
<stop offset="0.26" stop-color="#DCDEDF"/>
<stop offset="0.27" stop-color="#DADEE2"/>
<stop offset="0.31" stop-color="#EEEEEE"/>
<stop offset="0.57" stop-color="#EDEDED"/>
<stop offset="0.83" stop-color="#EFEFEF"/>
<stop offset="0.95" stop-color="#F6F6F6"/>
<stop offset="1" stop-color="#FDFDFD"/>
</linearGradient>
<linearGradient id="paint2_linear_52_46433" x1="162.035" y1="226.463" x2="162.035" y2="0.813646" gradientUnits="userSpaceOnUse">
<stop stop-color="#DEE1E5"/>
<stop offset="0.03" stop-color="#E1E1E1"/>
<stop offset="0.22" stop-color="#E0E0E0"/>
<stop offset="0.26" stop-color="#DEE0E1"/>
<stop offset="0.27" stop-color="#DDE0E4"/>
<stop offset="0.31" stop-color="#EFEFEF"/>
<stop offset="0.57" stop-color="#EEEEEE"/>
<stop offset="0.84" stop-color="#F0F0F0"/>
<stop offset="0.97" stop-color="#F7F7F7"/>
<stop offset="1" stop-color="#FBFBFB"/>
</linearGradient>
<linearGradient id="paint3_linear_52_46433" x1="162.035" y1="225.88" x2="162.035" y2="1.49646" gradientUnits="userSpaceOnUse">
<stop stop-color="#E1E4E8"/>
<stop offset="0.03" stop-color="#E4E4E4"/>
<stop offset="0.22" stop-color="#E3E3E3"/>
<stop offset="0.27" stop-color="#E0E3E6"/>
<stop offset="0.31" stop-color="#F0F0F0"/>
<stop offset="0.57" stop-color="#EEEEEE"/>
<stop offset="0.85" stop-color="#F0F0F0"/>
<stop offset="0.98" stop-color="#F7F7F7"/>
<stop offset="1" stop-color="#FAFAFA"/>
</linearGradient>
<linearGradient id="paint4_linear_52_46433" x1="162.035" y1="225.308" x2="162.035" y2="2.1795" gradientUnits="userSpaceOnUse">
<stop stop-color="#E4E7EA"/>
<stop offset="0.03" stop-color="#E7E7E7"/>
<stop offset="0.22" stop-color="#E6E6E6"/>
<stop offset="0.27" stop-color="#E3E5E8"/>
<stop offset="0.31" stop-color="#F1F1F1"/>
<stop offset="0.57" stop-color="#EFEFEF"/>
<stop offset="0.87" stop-color="#F1F1F1"/>
<stop offset="1" stop-color="#F8F8F8"/>
</linearGradient>
<linearGradient id="paint5_linear_52_46433" x1="162.035" y1="224.725" x2="162.035" y2="2.85248" gradientUnits="userSpaceOnUse">
<stop stop-color="#E8EAED"/>
<stop offset="0.03" stop-color="#EAEAEA"/>
<stop offset="0.22" stop-color="#E8E8E8"/>
<stop offset="0.27" stop-color="#E6E8EA"/>
<stop offset="0.31" stop-color="#F2F2F2"/>
<stop offset="0.55" stop-color="#EFEFEF"/>
<stop offset="0.57" stop-color="#EFEFEF"/>
<stop offset="0.89" stop-color="#F1F1F1"/>
<stop offset="1" stop-color="#F6F6F6"/>
</linearGradient>
<linearGradient id="paint6_linear_52_46433" x1="162.035" y1="224.143" x2="162.035" y2="3.53552" gradientUnits="userSpaceOnUse">
<stop stop-color="#EBEDEF"/>
<stop offset="0.03" stop-color="#EDEDED"/>
<stop offset="0.22" stop-color="#EBEBEB"/>
<stop offset="0.27" stop-color="#E8EAED"/>
<stop offset="0.31" stop-color="#F2F2F2"/>
<stop offset="0.57" stop-color="#F0F0F0"/>
<stop offset="0.94" stop-color="#F2F2F2"/>
<stop offset="1" stop-color="#F4F4F4"/>
</linearGradient>
<linearGradient id="paint7_linear_52_46433" x1="162.035" y1="223.56" x2="162.035" y2="4.21834" gradientUnits="userSpaceOnUse">
<stop stop-color="#EFF0F2"/>
<stop offset="0.03" stop-color="#F0F0F0"/>
<stop offset="0.21" stop-color="#EEEEEE"/>
<stop offset="0.22" stop-color="#EDEDED"/>
<stop offset="0.27" stop-color="#EBEDEF"/>
<stop offset="0.31" stop-color="#F3F3F3"/>
<stop offset="0.55" stop-color="#F0F0F0"/>
<stop offset="0.57" stop-color="#F0F0F0"/>
<stop offset="1" stop-color="#F2F2F2"/>
</linearGradient>
<linearGradient id="paint8_linear_52_46433" x1="162.035" y1="222.988" x2="162.035" y2="4.90137" gradientUnits="userSpaceOnUse">
<stop stop-color="#F2F3F4"/>
<stop offset="0.03" stop-color="#F3F3F3"/>
<stop offset="0.21" stop-color="#F1F1F1"/>
<stop offset="0.22" stop-color="#F0F0F0"/>
<stop offset="0.27" stop-color="#EEEFF1"/>
<stop offset="0.31" stop-color="#F4F4F4"/>
<stop offset="0.55" stop-color="#F1F1F1"/>
<stop offset="0.57" stop-color="#F1F1F1"/>
<stop offset="1" stop-color="#F0F0F0"/>
</linearGradient>
<linearGradient id="paint9_linear_52_46433" x1="162.035" y1="222.405" x2="162.035" y2="5.57436" gradientUnits="userSpaceOnUse">
<stop stop-color="#F5F6F7"/>
<stop offset="0.03" stop-color="#F6F6F6"/>
<stop offset="0.21" stop-color="#F4F4F4"/>
<stop offset="0.22" stop-color="#F3F3F3"/>
<stop offset="0.27" stop-color="#F1F2F3"/>
<stop offset="0.31" stop-color="#F5F5F5"/>
<stop offset="0.53" stop-color="#F2F2F2"/>
<stop offset="0.57" stop-color="#F1F1F1"/>
<stop offset="1" stop-color="#EFEFEF"/>
</linearGradient>
<linearGradient id="paint10_linear_52_46433" x1="162.035" y1="221.823" x2="162.035" y2="6.25739" gradientUnits="userSpaceOnUse">
<stop stop-color="#F9F9F9"/>
<stop offset="0.03" stop-color="#F9F9F9"/>
<stop offset="0.2" stop-color="#F7F7F7"/>
<stop offset="0.22" stop-color="#F5F5F5"/>
<stop offset="0.27" stop-color="#F4F4F5"/>
<stop offset="0.31" stop-color="#F6F6F6"/>
<stop offset="0.53" stop-color="#F3F3F3"/>
<stop offset="0.57" stop-color="#F2F2F2"/>
<stop offset="0.92" stop-color="#EFEFEF"/>
<stop offset="1" stop-color="#EDEDED"/>
</linearGradient>
<linearGradient id="paint11_linear_52_46433" x1="162.035" y1="221.24" x2="162.035" y2="6.93018" gradientUnits="userSpaceOnUse">
<stop stop-color="#FCFCFC"/>
<stop offset="1" stop-color="#EBEBEB"/>
</linearGradient>
<linearGradient id="paint12_linear_52_46433" x1="162.035" y1="460.479" x2="162.035" y2="232.309" gradientUnits="userSpaceOnUse">
<stop stop-color="#F2F2F2"/>
<stop offset="0.17" stop-color="#F1F1F1"/>
<stop offset="0.71" stop-color="#F0F0F0"/>
<stop offset="0.73" stop-color="#FCFCFC"/>
<stop offset="0.78" stop-color="#EAEAEA"/>
<stop offset="0.82" stop-color="#EEEEEE"/>
<stop offset="0.98" stop-color="#F0F0F0"/>
<stop offset="1" stop-color="#FDFDFD"/>
</linearGradient>
<linearGradient id="paint13_linear_52_46433" x1="162.035" y1="459.857" x2="162.035" y2="232.941" gradientUnits="userSpaceOnUse">
<stop stop-color="#F2F2F2"/>
<stop offset="0.17" stop-color="#F1F1F1"/>
<stop offset="0.24" stop-color="#F1F1F1"/>
<stop offset="0.71" stop-color="#F1F1F1"/>
<stop offset="0.73" stop-color="#FCFCFC"/>
<stop offset="0.78" stop-color="#EBEBEB"/>
<stop offset="0.82" stop-color="#EFEFEF"/>
<stop offset="0.98" stop-color="#F1F1F1"/>
<stop offset="1" stop-color="#FDFDFD"/>
</linearGradient>
<linearGradient id="paint14_linear_52_46433" x1="162.035" y1="459.224" x2="162.035" y2="233.574" gradientUnits="userSpaceOnUse">
<stop stop-color="#F3F3F3"/>
<stop offset="0.17" stop-color="#F2F2F2"/>
<stop offset="0.24" stop-color="#F2F2F2"/>
<stop offset="0.71" stop-color="#F2F2F2"/>
<stop offset="0.73" stop-color="#FBFBFB"/>
<stop offset="0.78" stop-color="#EDEDED"/>
<stop offset="0.81" stop-color="#F0F0F0"/>
<stop offset="0.98" stop-color="#F2F2F2"/>
<stop offset="1" stop-color="#FCFCFC"/>
</linearGradient>
<linearGradient id="paint15_linear_52_46433" x1="162.035" y1="458.591" x2="162.035" y2="234.207" gradientUnits="userSpaceOnUse">
<stop stop-color="#F3F3F3"/>
<stop offset="0.17" stop-color="#F2F2F2"/>
<stop offset="0.24" stop-color="#F2F2F2"/>
<stop offset="0.71" stop-color="#F2F2F2"/>
<stop offset="0.73" stop-color="#FBFBFB"/>
<stop offset="0.78" stop-color="#EEEEEE"/>
<stop offset="0.81" stop-color="#F1F1F1"/>
<stop offset="0.98" stop-color="#F3F3F3"/>
<stop offset="1" stop-color="#FCFCFC"/>
</linearGradient>
<linearGradient id="paint16_linear_52_46433" x1="162.035" y1="457.958" x2="162.035" y2="234.83" gradientUnits="userSpaceOnUse">
<stop stop-color="#F3F3F3"/>
<stop offset="0.17" stop-color="#F3F3F3"/>
<stop offset="0.24" stop-color="#F3F3F3"/>
<stop offset="0.71" stop-color="#F3F3F3"/>
<stop offset="0.73" stop-color="#FBFBFB"/>
<stop offset="0.78" stop-color="#EFEFEF"/>
<stop offset="0.81" stop-color="#F2F2F2"/>
<stop offset="0.98" stop-color="#F4F4F4"/>
<stop offset="1" stop-color="#FCFCFC"/>
</linearGradient>
<linearGradient id="paint17_linear_52_46433" x1="162.035" y1="457.335" x2="162.035" y2="235.462" gradientUnits="userSpaceOnUse">
<stop stop-color="#F3F3F3"/>
<stop offset="0.17" stop-color="#F3F3F3"/>
<stop offset="0.71" stop-color="#F4F4F4"/>
<stop offset="0.73" stop-color="#FBFBFB"/>
<stop offset="0.78" stop-color="#F1F1F1"/>
<stop offset="0.8" stop-color="#F3F3F3"/>
<stop offset="0.98" stop-color="#F5F5F5"/>
<stop offset="1" stop-color="#FCFCFC"/>
</linearGradient>
<linearGradient id="paint18_linear_52_46433" x1="162.035" y1="456.703" x2="162.035" y2="236.095" gradientUnits="userSpaceOnUse">
<stop stop-color="#F4F4F4"/>
<stop offset="0.17" stop-color="#F4F4F4"/>
<stop offset="0.71" stop-color="#F5F5F5"/>
<stop offset="0.73" stop-color="#FAFAFA"/>
<stop offset="0.78" stop-color="#F2F2F2"/>
<stop offset="0.79" stop-color="#F3F3F3"/>
<stop offset="0.98" stop-color="#F5F5F5"/>
<stop offset="1" stop-color="#FBFBFB"/>
</linearGradient>
<linearGradient id="paint19_linear_52_46433" x1="162.035" y1="456.07" x2="162.035" y2="236.728" gradientUnits="userSpaceOnUse">
<stop stop-color="#F4F4F4"/>
<stop offset="0.17" stop-color="#F4F4F4"/>
<stop offset="0.71" stop-color="#F6F6F6"/>
<stop offset="0.73" stop-color="#FAFAFA"/>
<stop offset="0.78" stop-color="#F4F4F4"/>
<stop offset="0.98" stop-color="#F6F6F6"/>
<stop offset="1" stop-color="#FBFBFB"/>
</linearGradient>
<linearGradient id="paint20_linear_52_46433" x1="162.035" y1="455.437" x2="162.035" y2="237.351" gradientUnits="userSpaceOnUse">
<stop stop-color="#F4F4F4"/>
<stop offset="0.17" stop-color="#F5F5F5"/>
<stop offset="0.71" stop-color="#F7F7F7"/>
<stop offset="0.73" stop-color="#FAFAFA"/>
<stop offset="0.78" stop-color="#F5F5F5"/>
<stop offset="0.98" stop-color="#F7F7F7"/>
<stop offset="1" stop-color="#FBFBFB"/>
</linearGradient>
<linearGradient id="paint21_linear_52_46433" x1="162.035" y1="454.805" x2="162.035" y2="237.984" gradientUnits="userSpaceOnUse">
<stop stop-color="#F4F4F4"/>
<stop offset="0.17" stop-color="#F5F5F5"/>
<stop offset="0.71" stop-color="#F7F7F7"/>
<stop offset="0.73" stop-color="#FAFAFA"/>
<stop offset="0.78" stop-color="#F6F6F6"/>
<stop offset="0.98" stop-color="#F8F8F8"/>
<stop offset="1" stop-color="#FBFBFB"/>
</linearGradient>
<linearGradient id="paint22_linear_52_46433" x1="162.035" y1="454.182" x2="162.035" y2="238.617" gradientUnits="userSpaceOnUse">
<stop stop-color="#F5F5F5"/>
<stop offset="0.17" stop-color="#F6F6F6"/>
<stop offset="0.71" stop-color="#F8F8F8"/>
<stop offset="0.73" stop-color="#F9F9F9"/>
<stop offset="0.78" stop-color="#F8F8F8"/>
<stop offset="0.98" stop-color="#F9F9F9"/>
<stop offset="1" stop-color="#FAFAFA"/>
</linearGradient>
<linearGradient id="paint23_linear_52_46433" x1="162.035" y1="453.549" x2="162.035" y2="239.249" gradientUnits="userSpaceOnUse">
<stop stop-color="#F5F5F5"/>
<stop offset="1" stop-color="#FAFAFA"/>
</linearGradient>
<linearGradient id="paint24_linear_52_46433" x1="29.4801" y1="291.599" x2="29.4801" y2="168.881" gradientUnits="userSpaceOnUse">
<stop stop-color="#A7A8A9"/>
<stop offset="0.05" stop-color="#CBCCCD"/>
<stop offset="0.1" stop-color="#E1E2E3"/>
<stop offset="0.12" stop-color="#E9EBEC"/>
<stop offset="0.25" stop-color="#F5F6F7"/>
<stop offset="0.29" stop-color="#EDEEEF"/>
<stop offset="0.34" stop-color="#D8D9DA"/>
<stop offset="0.36" stop-color="#CACBCC"/>
<stop offset="0.46" stop-color="#CDCECF"/>
<stop offset="0.54" stop-color="#D8D9DA"/>
<stop offset="0.55" stop-color="#DADBDC"/>
<stop offset="0.59" stop-color="#E8E9EA"/>
<stop offset="0.63" stop-color="#FAFBFC"/>
<stop offset="0.77" stop-color="#F5F6F7"/>
<stop offset="0.83" stop-color="#EFF0F1"/>
<stop offset="0.91" stop-color="#E0E1E2"/>
<stop offset="0.92" stop-color="#DEDFE0"/>
<stop offset="1" stop-color="#ACACAD"/>
</linearGradient>
<linearGradient id="paint25_linear_52_46433" x1="41.5571" y1="291.599" x2="41.5571" y2="168.881" gradientUnits="userSpaceOnUse">
<stop stop-color="#BABCBD"/>
<stop offset="0.04" stop-color="#CDCFD0"/>
<stop offset="0.09" stop-color="#E3E5E6"/>
<stop offset="0.12" stop-color="#ECEDEE"/>
<stop offset="0.25" stop-color="#DEDFE0"/>
<stop offset="0.29" stop-color="#D6D7D8"/>
<stop offset="0.35" stop-color="#C1C2C3"/>
<stop offset="0.36" stop-color="#BABCBD"/>
<stop offset="0.52" stop-color="#BCBCB9"/>
<stop offset="0.55" stop-color="#BDBCB8"/>
<stop offset="0.57" stop-color="#CAC9C6"/>
<stop offset="0.61" stop-color="#ECEDED"/>
<stop offset="0.63" stop-color="#FDFEFF"/>
<stop offset="0.71" stop-color="#EDEEEF"/>
<stop offset="0.77" stop-color="#DEDFE0"/>
<stop offset="0.84" stop-color="#D8D9DA"/>
<stop offset="0.92" stop-color="#C9CBCC"/>
<stop offset="1" stop-color="#A3A5A6"/>
</linearGradient>
<linearGradient id="paint26_linear_52_46433" x1="17.4133" y1="291.599" x2="17.4133" y2="168.881" gradientUnits="userSpaceOnUse">
<stop stop-color="#CACBCC"/>
<stop offset="0.02" stop-color="#D2D3D4"/>
<stop offset="0.08" stop-color="#E8E9EA"/>
<stop offset="0.12" stop-color="#F0F1F3"/>
<stop offset="0.25" stop-color="#F8F9FA"/>
<stop offset="0.29" stop-color="#F0F1F2"/>
<stop offset="0.35" stop-color="#DBDCDD"/>
<stop offset="0.36" stop-color="#D7D8DA"/>
<stop offset="0.47" stop-color="#DADBDD"/>
<stop offset="0.55" stop-color="#E4E5E6"/>
<stop offset="0.6" stop-color="#F2F3F4"/>
<stop offset="0.63" stop-color="#FEFFFF"/>
<stop offset="0.77" stop-color="#F8F9FA"/>
<stop offset="0.83" stop-color="#F2F3F4"/>
<stop offset="0.91" stop-color="#E3E4E5"/>
<stop offset="0.92" stop-color="#E2E3E4"/>
<stop offset="1" stop-color="#C8C9CA"/>
</linearGradient>
<linearGradient id="paint27_linear_52_46433" x1="294.198" y1="0.000243833" x2="294.198" y2="0.000243833" gradientUnits="userSpaceOnUse">
<stop stop-color="#A7A8A9"/>
<stop offset="0.05" stop-color="#CBCCCD"/>
<stop offset="0.1" stop-color="#E1E2E3"/>
<stop offset="0.12" stop-color="#E9EBEC"/>
<stop offset="0.25" stop-color="#F5F6F7"/>
<stop offset="0.29" stop-color="#EDEEEF"/>
<stop offset="0.34" stop-color="#D8D9DA"/>
<stop offset="0.36" stop-color="#CACBCC"/>
<stop offset="0.46" stop-color="#CDCECF"/>
<stop offset="0.54" stop-color="#D8D9DA"/>
<stop offset="0.55" stop-color="#DADBDC"/>
<stop offset="0.59" stop-color="#E8E9EA"/>
<stop offset="0.63" stop-color="#FAFBFC"/>
<stop offset="0.77" stop-color="#F5F6F7"/>
<stop offset="0.83" stop-color="#EFF0F1"/>
<stop offset="0.91" stop-color="#E0E1E2"/>
<stop offset="0.92" stop-color="#DEDFE0"/>
<stop offset="1" stop-color="#ACACAD"/>
</linearGradient>
<linearGradient id="paint28_linear_52_46433" x1="306.275" y1="0.000243833" x2="306.275" y2="0.000243833" gradientUnits="userSpaceOnUse">
<stop stop-color="#BABCBD"/>
<stop offset="0.04" stop-color="#CDCFD0"/>
<stop offset="0.09" stop-color="#E3E5E6"/>
<stop offset="0.12" stop-color="#ECEDEE"/>
<stop offset="0.25" stop-color="#DEDFE0"/>
<stop offset="0.29" stop-color="#D6D7D8"/>
<stop offset="0.35" stop-color="#C1C2C3"/>
<stop offset="0.36" stop-color="#BABCBD"/>
<stop offset="0.52" stop-color="#BCBCB9"/>
<stop offset="0.55" stop-color="#BDBCB8"/>
<stop offset="0.57" stop-color="#CAC9C6"/>
<stop offset="0.61" stop-color="#ECEDED"/>
<stop offset="0.63" stop-color="#FDFEFF"/>
<stop offset="0.71" stop-color="#EDEEEF"/>
<stop offset="0.77" stop-color="#DEDFE0"/>
<stop offset="0.84" stop-color="#D8D9DA"/>
<stop offset="0.92" stop-color="#C9CBCC"/>
<stop offset="1" stop-color="#A3A5A6"/>
</linearGradient>
<linearGradient id="paint29_linear_52_46433" x1="282.131" y1="0.000243833" x2="282.131" y2="0.000243833" gradientUnits="userSpaceOnUse">
<stop stop-color="#CACBCC"/>
<stop offset="0.02" stop-color="#D2D3D4"/>
<stop offset="0.08" stop-color="#E8E9EA"/>
<stop offset="0.12" stop-color="#F0F1F3"/>
<stop offset="0.25" stop-color="#F8F9FA"/>
<stop offset="0.29" stop-color="#F0F1F2"/>
<stop offset="0.35" stop-color="#DBDCDD"/>
<stop offset="0.36" stop-color="#D7D8DA"/>
<stop offset="0.47" stop-color="#DADBDD"/>
<stop offset="0.55" stop-color="#E4E5E6"/>
<stop offset="0.6" stop-color="#F2F3F4"/>
<stop offset="0.63" stop-color="#FEFFFF"/>
<stop offset="0.77" stop-color="#F8F9FA"/>
<stop offset="0.83" stop-color="#F2F3F4"/>
<stop offset="0.91" stop-color="#E3E4E5"/>
<stop offset="0.92" stop-color="#E2E3E4"/>
<stop offset="1" stop-color="#C8C9CA"/>
</linearGradient>
<clipPath id="clip0_52_46433">
<rect width="308" height="488" fill="white"/>
</clipPath>
</defs>
</svg>
